<?xml version="1.0" standalone="no"?>
<!DOCTYPE svg PUBLIC "-//W3C//DTD SVG 20010904//EN"
 "http://www.w3.org/TR/2001/REC-SVG-20010904/DTD/svg10.dtd">
<svg version="1.0" xmlns="http://www.w3.org/2000/svg"
 width="546.000000pt" height="546.000000pt" viewBox="0 0 546.000000 546.000000"
 preserveAspectRatio="xMidYMid meet">
<metadata>
Created by potrace 1.11, written by Peter Selinger 2001-2013
</metadata>
<g transform="translate(0.000000,546.000000) scale(0.100000,-0.100000)"
fill="#000000" stroke="none">
<path d="M2485 5454 c-16 -2 -84 -11 -150 -20 -457 -62 -937 -270 -1315 -571
-115 -91 -330 -306 -423 -423 -253 -319 -432 -686 -526 -1080 -56 -233 -66
-328 -66 -630 0 -214 4 -300 18 -390 93 -600 356 -1121 776 -1541 160 -159
429 -374 447 -356 4 3 204 934 446 2069 241 1134 440 2063 441 2064 3 2 1042
142 1043 140 1 -1 -317 -1510 -340 -1613 l-8 -33 72 0 c90 0 206 24 292 59
319 134 622 558 694 971 20 118 15 363 -10 455 -53 196 -192 361 -371 441
-125 55 -212 69 -430 68 -579 -3 -1037 -165 -1388 -494 -292 -274 -448 -616
-488 -1070 -21 -250 -1 -425 69 -597 l22 -53 -63 0 c-83 0 -239 25 -307 48
-194 68 -293 174 -352 379 -20 69 -23 99 -22 258 0 160 3 190 26 275 74 273
211 494 462 746 317 317 698 541 1182 697 354 114 699 156 1048 128 81 -7 150
-10 152 -8 6 5 -169 42 -297 63 -89 15 -560 28 -634 18z"/>
<path d="M4505 4768 c93 -150 138 -316 138 -513 -1 -256 -73 -475 -241 -726
-126 -188 -269 -331 -439 -441 -45 -29 -82 -56 -82 -59 -1 -3 18 -11 42 -18
152 -45 299 -171 367 -312 59 -125 73 -204 73 -399 -1 -254 -31 -424 -168
-930 -139 -515 -175 -693 -175 -861 0 -78 11 -153 24 -166 13 -14 256 144 406
264 119 95 311 289 410 413 307 387 495 816 572 1305 19 119 22 181 22 410 0
230 -3 290 -22 403 -82 497 -265 916 -572 1302 -83 105 -307 335 -367 378
l-32 23 44 -73z"/>
<path d="M2848 2747 c-48 -7 -89 -15 -92 -18 -6 -6 -566 -2644 -566 -2666 0
-15 73 -30 240 -50 156 -18 530 -14 667 7 l82 13 -39 45 c-77 87 -110 237 -91
413 15 138 48 292 137 639 42 162 94 365 115 450 144 563 154 852 34 1026 -89
128 -247 174 -487 141z"/>
</g>
</svg>
